<svg xmlns="http://www.w3.org/2000/svg" version="1.1" xmlns:xlink="http://www.w3.org/1999/xlink" xmlns:svgjs="http://svgjs.dev/svgjs" width="2000" height="1247" viewBox="0 0 2000 1247"><g transform="matrix(1,0,0,1,-1.2121212121212466,0.504858299595071)"><svg viewBox="0 0 396 247" data-background-color="#000000" preserveAspectRatio="xMidYMid meet" height="1247" width="2000" xmlns="http://www.w3.org/2000/svg" xmlns:xlink="http://www.w3.org/1999/xlink"><g id="tight-bounds" transform="matrix(1,0,0,1,0.2400000000000091,-0.09999999999999432)"><svg viewBox="0 0 395.52 247.2" height="247.2" width="395.52"><g><svg></svg></g><g><svg viewBox="0 0 395.52 247.2" height="247.2" width="395.52"><g transform="matrix(1,0,0,1,131.05409589041096,47.215199999999996)"><svg viewBox="0 0 133.41180821917808 152.7696" height="152.7696" width="133.41180821917808"><g><svg viewBox="0 0 133.41180821917808 152.7696" height="152.7696" width="133.41180821917808"><g><svg viewBox="0 0 133.41180821917808 152.7696" height="152.7696" width="133.41180821917808"><g><svg viewBox="0 0 133.41180821917808 152.7696" height="152.7696" width="133.41180821917808"><g id="textblocktransform"><svg viewBox="0 0 133.41180821917808 152.7696" height="152.7696" width="133.41180821917808" id="textblock"><g><svg viewBox="0 0 133.41180821917808 152.7696" height="152.7696" width="133.41180821917808"><g transform="matrix(1,0,0,1,0,0)"><svg width="133.41180821917808" viewBox="0.85 -35.64 31.130000000000003 35.64" height="152.7696" data-palette-color="#ffffff"><path d="M16.41-4.76L26.73-35.64 31.98-35.64Q31.32-34.16 30.57-32.23 29.81-30.3 28.56-26.73L28.56-26.73 19.17 0 13.67 0 4.15-26.73Q2.88-30.27 2.17-32.21 1.46-34.16 0.85-35.64L0.85-35.64 6.1-35.64 16.41-4.76Z" opacity="1" transform="matrix(1,0,0,1,0,0)" fill="#ffffff" class="wordmark-text-0" data-fill-palette-color="primary" id="text-0"></path></svg></g></svg></g></svg></g></svg></g></svg></g></svg></g></svg></g><path d="M82.165 41.215L82.165 0 329.365 0 329.365 247.2 82.165 247.2 82.165 205.985 95.942 205.985 95.942 233.423 315.588 233.423 315.588 13.777 95.942 13.777 95.942 41.215Z" fill="#ffffff" stroke="transparent" data-fill-palette-color="tertiary"></path></svg></g><defs></defs></svg><rect width="395.52" height="247.2" fill="none" stroke="none" visibility="hidden"></rect></g></svg></g></svg>